<svg width="859" height="352" viewBox="0 0 859 352" fill="none" xmlns="http://www.w3.org/2000/svg">
<g filter="url(#filter0_i_488_2823)">
<path d="M175.28 0.0143927C187.239 0.418268 197.23 9.234 199.113 21.0437L205.487 61.0329L220.412 17.7576C224.154 6.90812 234.805 -0.00641286 246.241 0.989002C257.677 1.98447 266.96 10.6343 268.753 21.9656L275.514 64.6912L288.806 26.1492C292.512 15.4049 303.001 8.50613 314.337 9.35619C325.673 10.2064 335.003 18.5913 337.047 29.7663L345.768 77.4441L361.097 32.9978C364.872 22.0551 375.666 15.1277 387.189 16.2537C398.712 17.3799 407.95 26.266 409.515 37.7312L416.781 90.9382L435.661 43.0779C439.577 33.149 449.367 26.795 460.033 27.2605C470.698 27.7262 479.888 34.9087 482.909 45.1404L511.003 140.292L535.422 77.5085C539.799 66.2573 551.591 59.7329 563.45 62.0027C575.308 64.2725 583.843 74.6883 583.734 86.7566L582.927 176.342L629.393 101.467C635.507 91.6148 647.593 87.2505 658.587 90.9245C669.582 94.5987 676.602 105.347 675.545 116.888L670.81 168.598L694.28 139.268C700.95 130.933 712.176 127.745 722.227 131.331C732.278 134.917 738.939 144.487 738.81 155.155L738.318 195.786L753.35 176.965C760.054 168.571 771.371 165.39 781.462 169.063C791.554 172.736 798.165 182.442 797.888 193.175L797.121 222.948L820.331 209.281C828.336 204.568 838.292 204.675 846.187 209.559C854.082 214.444 858.614 223.302 857.958 232.562L851.199 327.829C850.222 341.598 838.263 351.976 824.487 351.01C810.71 350.044 800.334 338.098 801.311 324.329L804.707 276.478L783.64 288.883C775.809 293.493 766.094 293.498 758.265 288.894C750.436 284.29 745.725 275.803 745.959 266.724L745.971 266.299L731.97 283.828C725.305 292.172 714.076 295.37 704.019 291.788C693.962 288.205 687.296 278.632 687.425 267.96L687.919 227.22L657.842 264.805C650.944 273.425 639.21 276.509 628.97 272.392C618.731 268.275 612.408 257.932 613.415 246.943L616.093 217.704L578.366 278.496C572.454 288.022 560.923 292.456 550.154 289.343C539.385 286.231 532.01 276.333 532.111 265.128L532.492 222.978L531.062 226.651C527.185 236.619 517.394 243.024 506.706 242.583C496.017 242.142 486.796 234.954 483.769 224.701L455.513 129.001L428.204 198.23C424.03 208.81 413.24 215.246 401.946 213.893C390.652 212.54 381.701 203.738 380.163 192.474L374.157 148.488L361.962 183.846C358.257 194.591 347.767 201.49 336.431 200.64C325.095 199.79 315.764 191.404 313.72 180.228L305 132.553L290.116 175.71C286.374 186.559 275.723 193.475 264.287 192.479C252.851 191.484 243.568 182.833 241.775 171.502L235.013 128.775L220.167 171.826C216.426 182.671 205.782 189.586 194.351 188.597C182.92 187.609 173.635 178.97 171.83 167.645L169.912 155.609L163.334 184.087C160.801 195.051 151.251 202.978 140.003 203.452C128.756 203.926 118.583 196.83 115.151 186.117L109.541 168.599L107.92 183.468C106.72 194.488 98.4013 203.406 87.4868 205.376C76.5726 207.346 65.6689 201.897 60.7017 191.992L51.7935 174.225L49.9888 214.167C49.366 227.956 37.6771 238.638 23.8804 238.026C10.0836 237.414 -0.596744 225.738 0.025898 211.949L6.15969 76.1335C6.673 64.7674 14.8026 55.1765 25.937 52.8005C37.0714 50.4247 48.4007 55.8635 53.4995 66.032L67.3911 93.7331L72.5747 46.1335C73.8531 34.3983 83.1718 25.1504 94.9224 23.9558C106.673 22.7614 117.651 29.9461 121.251 41.1853L135.061 84.2937L150.051 19.3884C152.744 7.73291 163.32 -0.389153 175.28 0.0143927Z" fill="url(#paint0_linear_488_2823)"/>
</g>
<defs>
<filter id="filter0_i_488_2823" x="0" y="0" width="858.021" height="357.239" filterUnits="userSpaceOnUse" color-interpolation-filters="sRGB">
<feFlood flood-opacity="0" result="BackgroundImageFix"/>
<feBlend mode="normal" in="SourceGraphic" in2="BackgroundImageFix" result="shape"/>
<feColorMatrix in="SourceAlpha" type="matrix" values="0 0 0 0 0 0 0 0 0 0 0 0 0 0 0 0 0 0 127 0" result="hardAlpha"/>
<feOffset dy="6.16633"/>
<feGaussianBlur stdDeviation="48.3286"/>
<feComposite in2="hardAlpha" operator="arithmetic" k2="-1" k3="1"/>
<feColorMatrix type="matrix" values="0 0 0 0 0 0 0 0 0 0 0 0 0 0 0 0 0 0 0.25 0"/>
<feBlend mode="normal" in2="shape" result="effect1_innerShadow_488_2823"/>
</filter>
<linearGradient id="paint0_linear_488_2823" x1="176.718" y1="86.6883" x2="619.632" y2="235.175" gradientUnits="userSpaceOnUse">
<stop stop-color="#6552D0"/>
<stop offset="0.0526316" stop-color="#664FCD"/>
<stop offset="0.105263" stop-color="#674DCB"/>
<stop offset="0.157895" stop-color="#6D55CB"/>
<stop offset="0.210526" stop-color="#8569C0"/>
<stop offset="0.263158" stop-color="#9D82AD"/>
<stop offset="0.315789" stop-color="#B09C9A"/>
<stop offset="0.368421" stop-color="#BFB684"/>
<stop offset="0.421053" stop-color="#CACF6D"/>
<stop offset="0.473684" stop-color="#D0DD5C"/>
<stop offset="0.526316" stop-color="#D2E156"/>
<stop offset="0.578947" stop-color="#D4E550"/>
<stop offset="0.631579" stop-color="#D5E94A"/>
<stop offset="0.684211" stop-color="#D7ED43"/>
<stop offset="0.736842" stop-color="#D8EF42"/>
<stop offset="0.789474" stop-color="#D8EF47"/>
<stop offset="0.842105" stop-color="#D8EF4E"/>
<stop offset="0.894737" stop-color="#D9EF55"/>
<stop offset="0.947368" stop-color="#D9EE5B"/>
<stop offset="1" stop-color="#D9EE61"/>
</linearGradient>
</defs>
</svg>
