<svg width="91" height="91" viewBox="0 0 91 91" fill="none" xmlns="http://www.w3.org/2000/svg">
<g clip-path="url(#clip0_634_3034)">
<rect width="91" height="91" rx="7.74411" fill="#D9EE61"/>
<path d="M29.7044 67.7207C34.9466 77.5652 64.6384 77.4023 68.3539 62.7482C70.0132 56.2041 69.1344 51.2936 65.3085 45.7313C56.094 32.3345 33.0804 43.8094 29.6094 67.1296C29.5793 67.3316 29.6084 67.5405 29.7044 67.7207Z" fill="#6552D0" stroke="#D9EE61" stroke-width="1.04056"/>
<path d="M83.4168 36.1394C80.7225 40.8951 74.6126 45.8301 69.6316 41.7699C66.058 38.6777 61.6744 31.2337 64.7084 27.4198C64.7839 27.3249 64.8719 27.241 64.965 27.1634C66.2227 26.1158 70.8174 22.1639 77.347 21.5763C79.0315 21.4247 79.887 23.4747 78.8973 24.8462C77.2513 27.1271 75.219 30.1541 73.6364 32.8165C73.0792 33.7541 73.4228 34.9111 74.4953 35.1092C76.2094 35.4259 78.6376 35.4049 80.7302 34.6026C82.5342 33.9109 84.3691 34.4584 83.4168 36.1394Z" fill="#6552D0" stroke="#6552D0" stroke-width="1.04056"/>
<path d="M45.4687 27.0041C31.8562 28.6581 22.0818 41.1698 23.7688 55.0536C25.4559 68.9373 37.9421 78.7446 51.5546 77.0908C65.1671 75.437 74.9413 62.9251 73.2545 49.0414C71.5675 35.1575 59.0813 25.3503 45.4687 27.0041Z" stroke="#6552D0" stroke-width="11.4448"/>
<path d="M9.53114 -6.53092L17.4231 51.9944C18.1035 57.0404 24.8788 58.2056 27.2058 53.6767L27.3005 53.4923C27.7882 52.5432 27.9722 51.467 27.8275 50.4098L18.4531 -18.1093C18.0356 -21.1608 15.073 -23.1836 12.079 -22.4613L-7.05776 -17.845C-9.5411 -17.2459 -11.0949 -14.7773 -10.561 -12.2791C-9.99401 -9.62613 -7.30973 -7.9985 -4.6952 -8.72235L2.98752 -10.8494C6.02675 -11.6908 9.10971 -9.6562 9.53114 -6.53092Z" fill="#6552D0"/>
</g>
<defs>
<clipPath id="clip0_634_3034">
<rect width="91" height="91" rx="7.74411" fill="white"/>
</clipPath>
</defs>
</svg>
