<svg width="28" height="28" viewBox="0 0 28 28" fill="none" xmlns="http://www.w3.org/2000/svg">
<path fill-rule="evenodd" clip-rule="evenodd" d="M0.756842 6.86678C0.752384 6.96489 0.750131 7.06358 0.750131 7.16279C0.750131 7.78742 0.839434 8.39118 1.00597 8.96202C2.81293 18.0213 13.5756 26.7478 13.5756 26.7478C13.5756 26.7478 26.4012 18.0819 26.4012 7.32331H26.399C26.4003 7.26996 26.401 7.21646 26.401 7.1628C26.401 3.62112 23.5299 0.750011 19.9882 0.750011C16.4617 0.750011 13.6 3.59654 13.5756 7.11728C13.5511 3.59654 10.6894 0.75 7.16292 0.75C3.85364 0.75 1.12981 3.25668 0.786596 6.47488C0.762345 6.47138 0.75 6.46954 0.75 6.46954C0.75 6.60187 0.752301 6.73429 0.756842 6.86678Z" stroke="#D9EE61" stroke-width="1.5" stroke-linejoin="round"/>
</svg>
