<svg width="49" height="49" viewBox="0 0 49 49" fill="none" xmlns="http://www.w3.org/2000/svg">
<path fill-rule="evenodd" clip-rule="evenodd" d="M48.1649 11.4885C48.1733 11.6727 48.1775 11.8581 48.1775 12.0444C48.1775 13.2176 48.0098 14.3516 47.697 15.4237C44.3032 32.4388 24.0889 48.8288 24.0889 48.8288C24.0889 48.8288 3.8147e-05 32.5525 3.8147e-05 12.3459H0.00408936C0.00162888 12.2457 0.000392914 12.1452 0.000392914 12.0444C0.000392914 5.39249 5.39286 2.01372e-05 12.0448 2.01372e-05C18.6682 2.01372e-05 24.043 5.34634 24.0889 11.9589C24.1349 5.34633 29.5096 0 36.1331 0C42.3485 0 47.4644 4.708 48.109 10.7524C48.1545 10.7458 48.1777 10.7424 48.1777 10.7424C48.1777 10.9909 48.1734 11.2396 48.1649 11.4885Z" fill="#D9EE61"/>
</svg>
