<svg width="681" height="716" viewBox="0 0 681 716" fill="none" xmlns="http://www.w3.org/2000/svg">
<g clip-path="url(#clip0_204_6)">
<g filter="url(#filter0_i_204_6)">
<rect width="805.17" height="847.543" rx="42" fill="url(#paint0_linear_204_6)"/>
</g>
<path d="M529.701 18.1044C514.549 9.54649 494.041 11.6503 480.296 23.1727C466.552 34.6955 463.232 52.569 472.297 66.2294L516.089 132.216L434.743 86.2684C419.597 77.7138 399.098 79.8131 385.353 91.3251C371.608 102.837 368.274 120.699 377.319 134.363L394.983 161.046L339.123 122.076C325.834 112.805 306.669 112.595 291.946 121.559C277.222 130.524 270.413 146.548 275.182 161.006L283.3 185.616L245.262 143.321C234.499 131.354 215.483 127.641 198.854 134.261C182.225 140.88 172.107 156.19 174.161 171.624L174.281 172.52L157.718 144.085C150.446 131.598 134.868 124.758 118.53 126.876C102.192 128.994 88.4643 139.634 83.9966 153.642L82.7729 157.482L82.7095 156.432C81.7554 140.598 68.5441 127.976 50.6714 125.821C32.7987 123.667 14.8542 132.533 7.15479 147.323L-0.000488281 161.069V-9.78333C-0.000245937 -17.103 5.9337 -23.0362 13.2534 -23.0363L560.144 -23.0363C560.54 -18.3717 562.031 -13.7787 564.682 -9.55676L610.825 63.9247L529.701 18.1044ZM816.708 256.887C801.512 249.718 783.166 251.646 771.268 261.662C759.371 271.679 756.629 287.505 764.478 300.859L823.687 401.597V413.412L663.514 349.271C647.152 342.719 628.256 346.312 617.431 358.032C606.607 369.752 606.547 386.682 617.287 399.321L689.199 483.958L574.549 432.63C558.214 425.316 538.737 428.407 527.386 440.113C516.036 451.819 515.748 469.111 526.688 481.987L590.699 557.324L490.933 516.288C474.573 509.559 455.542 513.036 444.594 524.754C433.647 536.472 433.535 553.487 444.321 566.182L502.243 634.352L411.016 594.557C394.67 587.427 375.333 590.64 364.108 602.35C352.883 614.061 352.65 631.267 363.542 644.087L426.855 718.602L340.131 680.874C323.08 673.456 302.908 677.313 292.002 690.078C281.097 702.843 282.51 720.94 295.375 733.259L406.21 839.381L286.923 815.4C268.519 811.7 250.264 819.695 243.347 834.484C236.431 849.273 242.783 866.727 258.512 876.147L364.931 939.881L271.448 934.307C252.45 933.175 235.881 943.998 232.141 959.984C231.026 964.75 231.148 969.564 232.335 974.153H13.2534C5.93355 974.153 -0.000488281 968.219 -0.000488281 960.899L-0.000488281 324.922L11.8198 302.215L16.104 373.327C17.1208 390.202 32.0084 403.266 51.2925 404.204C70.5769 405.142 88.5955 393.678 93.8794 377.109L132.275 256.712L204.29 380.361C212.837 395.038 232.58 401.605 251.076 395.924C269.571 390.242 281.459 373.959 279.248 357.336L269.73 285.793L347.791 372.59C359.273 385.357 380.007 388.626 397.12 380.367C414.231 372.108 422.861 354.666 417.651 338.872L387.298 246.853L512.496 334.199C527.103 344.389 548.565 343.524 563.427 332.146C578.289 320.769 582.275 302.153 572.885 287.969L531.679 225.722L613.374 271.865C628.525 280.423 649.034 278.318 662.778 266.796C676.522 255.273 679.843 237.4 670.777 223.739L626.985 157.753L700.997 199.557C716.012 208.037 736.31 206.055 750.068 194.765C763.826 183.474 767.449 165.824 758.829 152.096L712.687 78.6151L795.906 125.62C804.223 130.318 814.151 131.802 823.687 130.282V260.179L816.708 256.887ZM823.687 960.899C823.687 968.219 817.753 974.153 810.433 974.153H540.433C537.874 966.365 532.199 959.273 524.029 954.38L468.042 920.849L510.04 929.293C526.715 932.645 543.492 926.405 551.609 913.831C559.726 901.257 557.341 885.204 545.698 874.056L489.907 820.636L536.365 840.848C552.711 847.959 572.034 844.733 583.246 833.022C594.457 821.311 594.685 804.115 583.797 791.301L520.709 717.051L611.936 756.846C628.282 763.976 647.62 760.762 658.844 749.052C670.069 737.341 670.302 720.135 659.41 707.315L596.875 633.717L696.64 674.753C713 681.482 732.033 678.005 742.98 666.287C753.927 654.569 754.039 637.554 743.253 624.859L686.099 557.592L800.749 608.92C808.101 612.211 816.09 613.395 823.687 612.635L823.687 960.899ZM682.675 -23.0363H690.368L695.167 -15.9806L682.675 -23.0363ZM767.925 464.603L823.687 486.932V530.231L767.925 464.603ZM795.062 -8.14661L823.687 8.02136V33.9384L795.062 -8.14661Z" fill="#D9D9D9"/>
<path d="M529.701 18.1044C514.549 9.54649 494.041 11.6503 480.296 23.1727C466.552 34.6955 463.232 52.569 472.297 66.2294L516.089 132.216L434.743 86.2684C419.597 77.7138 399.098 79.8131 385.353 91.3251C371.608 102.837 368.274 120.699 377.319 134.363L394.983 161.046L339.123 122.076C325.834 112.805 306.669 112.595 291.946 121.559C277.222 130.524 270.413 146.548 275.182 161.006L283.3 185.616L245.262 143.321C234.499 131.354 215.483 127.641 198.854 134.261C182.225 140.88 172.107 156.19 174.161 171.624L174.281 172.52L157.718 144.085C150.446 131.598 134.868 124.758 118.53 126.876C102.192 128.994 88.4643 139.634 83.9966 153.642L82.7729 157.482L82.7095 156.432C81.7554 140.598 68.5441 127.976 50.6714 125.821C32.7987 123.667 14.8542 132.533 7.15479 147.323L-0.000488281 161.069V-9.78333C-0.000245937 -17.103 5.9337 -23.0362 13.2534 -23.0363L560.144 -23.0363C560.54 -18.3717 562.031 -13.7787 564.682 -9.55676L610.825 63.9247L529.701 18.1044ZM816.708 256.887C801.512 249.718 783.166 251.646 771.268 261.662C759.371 271.679 756.629 287.505 764.478 300.859L823.687 401.597V413.412L663.514 349.271C647.152 342.719 628.256 346.312 617.431 358.032C606.607 369.752 606.547 386.682 617.287 399.321L689.199 483.958L574.549 432.63C558.214 425.316 538.737 428.407 527.386 440.113C516.036 451.819 515.748 469.111 526.688 481.987L590.699 557.324L490.933 516.288C474.573 509.559 455.542 513.036 444.594 524.754C433.647 536.472 433.535 553.487 444.321 566.182L502.243 634.352L411.016 594.557C394.67 587.427 375.333 590.64 364.108 602.35C352.883 614.061 352.65 631.267 363.542 644.087L426.855 718.602L340.131 680.874C323.08 673.456 302.908 677.313 292.002 690.078C281.097 702.843 282.51 720.94 295.375 733.259L406.21 839.381L286.923 815.4C268.519 811.7 250.264 819.695 243.347 834.484C236.431 849.273 242.783 866.727 258.512 876.147L364.931 939.881L271.448 934.307C252.45 933.175 235.881 943.998 232.141 959.984C231.026 964.75 231.148 969.564 232.335 974.153H13.2534C5.93355 974.153 -0.000488281 968.219 -0.000488281 960.899L-0.000488281 324.922L11.8198 302.215L16.104 373.327C17.1208 390.202 32.0084 403.266 51.2925 404.204C70.5769 405.142 88.5955 393.678 93.8794 377.109L132.275 256.712L204.29 380.361C212.837 395.038 232.58 401.605 251.076 395.924C269.571 390.242 281.459 373.959 279.248 357.336L269.73 285.793L347.791 372.59C359.273 385.357 380.007 388.626 397.12 380.367C414.231 372.108 422.861 354.666 417.651 338.872L387.298 246.853L512.496 334.199C527.103 344.389 548.565 343.524 563.427 332.146C578.289 320.769 582.275 302.153 572.885 287.969L531.679 225.722L613.374 271.865C628.525 280.423 649.034 278.318 662.778 266.796C676.522 255.273 679.843 237.4 670.777 223.739L626.985 157.753L700.997 199.557C716.012 208.037 736.31 206.055 750.068 194.765C763.826 183.474 767.449 165.824 758.829 152.096L712.687 78.6151L795.906 125.62C804.223 130.318 814.151 131.802 823.687 130.282V260.179L816.708 256.887ZM823.687 960.899C823.687 968.219 817.753 974.153 810.433 974.153H540.433C537.874 966.365 532.199 959.273 524.029 954.38L468.042 920.849L510.04 929.293C526.715 932.645 543.492 926.405 551.609 913.831C559.726 901.257 557.341 885.204 545.698 874.056L489.907 820.636L536.365 840.848C552.711 847.959 572.034 844.733 583.246 833.022C594.457 821.311 594.685 804.115 583.797 791.301L520.709 717.051L611.936 756.846C628.282 763.976 647.62 760.762 658.844 749.052C670.069 737.341 670.302 720.135 659.41 707.315L596.875 633.717L696.64 674.753C713 681.482 732.033 678.005 742.98 666.287C753.927 654.569 754.039 637.554 743.253 624.859L686.099 557.592L800.749 608.92C808.101 612.211 816.09 613.395 823.687 612.635L823.687 960.899ZM682.675 -23.0363H690.368L695.167 -15.9806L682.675 -23.0363ZM767.925 464.603L823.687 486.932V530.231L767.925 464.603ZM795.062 -8.14661L823.687 8.02136V33.9384L795.062 -8.14661Z" fill="url(#paint1_linear_204_6)"/>
</g>
<defs>
<filter id="filter0_i_204_6" x="0" y="0" width="805.169" height="851.743" filterUnits="userSpaceOnUse" color-interpolation-filters="sRGB">
<feFlood flood-opacity="0" result="BackgroundImageFix"/>
<feBlend mode="normal" in="SourceGraphic" in2="BackgroundImageFix" result="shape"/>
<feColorMatrix in="SourceAlpha" type="matrix" values="0 0 0 0 0 0 0 0 0 0 0 0 0 0 0 0 0 0 127 0" result="hardAlpha"/>
<feMorphology radius="16.8" operator="erode" in="SourceAlpha" result="effect1_innerShadow_204_6"/>
<feOffset dy="4.2"/>
<feGaussianBlur stdDeviation="20.895"/>
<feComposite in2="hardAlpha" operator="arithmetic" k2="-1" k3="1"/>
<feColorMatrix type="matrix" values="0 0 0 0 0 0 0 0 0 0 0 0 0 0 0 0 0 0 0.25 0"/>
<feBlend mode="normal" in2="shape" result="effect1_innerShadow_204_6"/>
</filter>
<linearGradient id="paint0_linear_204_6" x1="1.10687e-05" y1="252.498" x2="674.974" y2="18.3512" gradientUnits="userSpaceOnUse">
<stop stop-color="#5B4ABB"/>
<stop offset="1" stop-color="#0E0E0E"/>
</linearGradient>
<linearGradient id="paint1_linear_204_6" x1="323.595" y1="82.6121" x2="318.859" y2="840.373" gradientUnits="userSpaceOnUse">
<stop stop-color="#6552D0"/>
<stop offset="0.0526316" stop-color="#664FCD"/>
<stop offset="0.105263" stop-color="#674DCB"/>
<stop offset="0.157895" stop-color="#6D55CB"/>
<stop offset="0.210526" stop-color="#8569C0"/>
<stop offset="0.263158" stop-color="#9D82AD"/>
<stop offset="0.315789" stop-color="#B09C9A"/>
<stop offset="0.368421" stop-color="#BFB684"/>
<stop offset="0.421053" stop-color="#CACF6D"/>
<stop offset="0.473684" stop-color="#D0DD5C"/>
<stop offset="0.526316" stop-color="#D2E156"/>
<stop offset="0.578947" stop-color="#D4E550"/>
<stop offset="0.631579" stop-color="#D5E94A"/>
<stop offset="0.684211" stop-color="#D7ED43"/>
<stop offset="0.736842" stop-color="#D8EF42"/>
<stop offset="0.789474" stop-color="#D8EF47"/>
<stop offset="0.842105" stop-color="#D8EF4E"/>
<stop offset="0.894737" stop-color="#D9EF55"/>
<stop offset="0.947368" stop-color="#D9EE5B"/>
<stop offset="1" stop-color="#D9EE61"/>
</linearGradient>
<clipPath id="clip0_204_6">
<rect width="680.211" height="715.131" fill="white"/>
</clipPath>
</defs>
</svg>
