<svg width="49" height="49" viewBox="0 0 49 49" fill="none" xmlns="http://www.w3.org/2000/svg">
<circle cx="24.4144" cy="24.4144" r="23.7362" stroke="#D9EE61" stroke-width="1.35635"/>
<path d="M22.4623 28.1432C22.4623 27.4379 22.5799 26.8231 22.815 26.2986C23.0501 25.7741 23.3394 25.3039 23.683 24.888C24.0447 24.472 24.4336 24.0923 24.8495 23.7486C25.2655 23.387 25.6543 23.0343 26.016 22.6907C26.3777 22.329 26.667 21.9492 26.884 21.5514C27.1191 21.1535 27.2367 20.6923 27.2367 20.1679C27.2367 19.2998 26.8931 18.5945 26.2059 18.052C25.5186 17.5094 24.5692 17.2381 23.3575 17.2381C22.2724 17.2381 21.332 17.419 20.5363 17.7807C19.7406 18.1424 19.0624 18.6759 18.5018 19.3812L16.5215 17.9706C17.281 17.0121 18.2486 16.2706 19.4241 15.7462C20.5996 15.2036 21.974 14.9323 23.5474 14.9323C24.8495 14.9323 25.9798 15.1313 26.9383 15.5291C27.8968 15.9089 28.6383 16.4605 29.1627 17.1839C29.7052 17.8892 29.9765 18.7482 29.9765 19.761C29.9765 20.5205 29.859 21.1716 29.6239 21.7141C29.3888 22.2567 29.0904 22.7359 28.7287 23.1519C28.367 23.5678 27.9782 23.9566 27.5622 24.3183C27.1643 24.68 26.7846 25.0417 26.4229 25.4034C26.0612 25.7651 25.7628 26.163 25.5277 26.597C25.2926 27.031 25.175 27.5464 25.175 28.1432H22.4623ZM23.8458 34.3011C23.3394 34.3011 22.9144 34.1293 22.5708 33.7857C22.2453 33.4421 22.0825 33.0352 22.0825 32.565C22.0825 32.0586 22.2453 31.6426 22.5708 31.3171C22.9144 30.9916 23.3394 30.8288 23.8458 30.8288C24.3522 30.8288 24.7681 30.9916 25.0936 31.3171C25.4192 31.6426 25.5819 32.0586 25.5819 32.565C25.5819 33.0352 25.4192 33.4421 25.0936 33.7857C24.7681 34.1293 24.3522 34.3011 23.8458 34.3011Z" fill="#D9EE61"/>
</svg>
