<svg width="34" height="34" viewBox="0 0 34 34" fill="none" xmlns="http://www.w3.org/2000/svg">
<g clip-path="url(#clip0_634_3049)">
<path d="M16.7918 6.99573V3.69769C16.7918 2.84921 15.7659 2.42429 15.1659 3.02425L10.4686 7.72162C10.0966 8.09355 10.0966 8.69656 10.4686 9.06849L15.1659 13.7659C15.7659 14.3658 16.7918 13.9409 16.7918 13.0924V9.79438C21.4235 9.79438 25.1877 13.5586 25.1877 18.1903C25.1877 22.8221 21.4235 26.5863 16.7918 26.5863C12.4814 26.5863 8.92245 23.3264 8.44923 19.1411C8.39014 18.6185 7.96942 18.1903 7.44343 18.1903H6.54955C6.02356 18.1903 5.59294 18.6182 5.63703 19.1423C6.11979 24.8813 10.9274 29.3849 16.7918 29.3849C22.9768 29.3849 27.9863 24.3753 27.9863 18.1903C27.9863 12.0053 22.9768 6.99573 16.7918 6.99573Z" fill="#D9EE61"/>
</g>
<defs>
<clipPath id="clip0_634_3049">
<rect width="33.5838" height="33.5838" fill="white"/>
</clipPath>
</defs>
</svg>
