<svg width="25" height="27" viewBox="0 0 25 27" fill="none" xmlns="http://www.w3.org/2000/svg">
<path d="M10.2812 0C15.9595 0 20.5624 4.60306 20.5625 10.2812C20.5625 15.9595 15.9595 20.5625 10.2812 20.5625C4.60306 20.5624 0 15.9595 0 10.2812C7.5763e-05 4.60311 4.60311 7.57653e-05 10.2812 0ZM10.1406 2.3457C5.75787 2.4235 2.26807 6.03916 2.3457 10.4219C2.4235 14.8046 6.03916 18.2944 10.4219 18.2168C14.8047 18.139 18.2945 14.5234 18.2168 10.1406C18.139 5.75782 14.5234 2.26799 10.1406 2.3457Z" fill="#D9EE61"/>
<path d="M23.7492 23.7331C24.2062 24.1901 24.2062 24.931 23.7492 25.388C23.2922 25.845 22.5513 25.845 22.0943 25.388L14.7461 18.0397C14.7164 18.0101 14.7164 17.962 14.7461 17.9323L16.2935 16.3849C16.3232 16.3552 16.3713 16.3552 16.401 16.3849L23.7492 23.7331Z" fill="#D9EE61"/>
</svg>
