<svg width="1393" height="1161" viewBox="0 0 1393 1161" fill="none" xmlns="http://www.w3.org/2000/svg">
<g filter="url(#filter0_i_781_3126)">
<path d="M1116.06 42.482L829.626 207.7C826.978 209.227 823.61 208.572 821.727 206.164L662.375 2.35668C659.562 -1.24102 653.945 -0.614132 651.995 3.51519L519.647 283.685C518.231 286.683 514.69 288.014 511.65 286.69L202.563 152.07C197.607 149.911 192.484 154.753 194.359 159.823L288.623 414.747C289.604 417.4 288.644 420.38 286.299 421.962L2.71457 613.152C-2.18076 616.452 -0.0459289 624.085 5.85139 624.367L125.98 630.109L449.082 630.109C454.191 630.109 457.062 635.987 453.921 640.016L158.111 1019.55C154.37 1024.35 159.145 1031.08 164.911 1029.14L755.838 829.778C758.55 828.863 761.533 829.944 763.029 832.384L962.766 1158.06C965.797 1163 973.358 1161.37 974.083 1155.62L1033.68 682.914C1034.23 678.51 1039.14 676.135 1042.94 678.429L1329.74 851.62C1335.5 855.094 1341.84 848.121 1337.85 842.718L1114.77 541.216C1112.67 538.371 1113.4 534.339 1116.37 532.416L1389.97 355.383C1395.55 351.778 1392.22 343.122 1385.67 344.175L1003.73 405.494C999.102 406.238 995.383 401.72 997.004 397.317L1124.88 49.9158C1126.86 44.5313 1121.03 39.6151 1116.06 42.482Z" fill="#D9EE61"/>
<path d="M1116.06 42.482L829.626 207.7C826.978 209.227 823.61 208.572 821.727 206.164L662.375 2.35668C659.562 -1.24102 653.945 -0.614132 651.995 3.51519L519.647 283.685C518.231 286.683 514.69 288.014 511.65 286.69L202.563 152.07C197.607 149.911 192.484 154.753 194.359 159.823L288.623 414.747C289.604 417.4 288.644 420.38 286.299 421.962L2.71457 613.152C-2.18076 616.452 -0.0459289 624.085 5.85139 624.367L125.98 630.109L449.082 630.109C454.191 630.109 457.062 635.987 453.921 640.016L158.111 1019.55C154.37 1024.35 159.145 1031.08 164.911 1029.14L755.838 829.778C758.55 828.863 761.533 829.944 763.029 832.384L962.766 1158.06C965.797 1163 973.358 1161.37 974.083 1155.62L1033.68 682.914C1034.23 678.51 1039.14 676.135 1042.94 678.429L1329.74 851.62C1335.5 855.094 1341.84 848.121 1337.85 842.718L1114.77 541.216C1112.67 538.371 1113.4 534.339 1116.37 532.416L1389.97 355.383C1395.55 351.778 1392.22 343.122 1385.67 344.175L1003.73 405.494C999.102 406.238 995.383 401.72 997.004 397.317L1124.88 49.9158C1126.86 44.5313 1121.03 39.6151 1116.06 42.482Z" fill="url(#paint0_linear_781_3126)"/>
</g>
<defs>
<filter id="filter0_i_781_3126" x="0" y="0" width="1392.8" height="1160.99" filterUnits="userSpaceOnUse" color-interpolation-filters="sRGB">
<feFlood flood-opacity="0" result="BackgroundImageFix"/>
<feBlend mode="normal" in="SourceGraphic" in2="BackgroundImageFix" result="shape"/>
<feColorMatrix in="SourceAlpha" type="matrix" values="0 0 0 0 0 0 0 0 0 0 0 0 0 0 0 0 0 0 127 0" result="hardAlpha"/>
<feOffset/>
<feGaussianBlur stdDeviation="118.86"/>
<feComposite in2="hardAlpha" operator="arithmetic" k2="-1" k3="1"/>
<feColorMatrix type="matrix" values="0 0 0 0 0 0 0 0 0 0 0 0 0 0 0 0 0 0 0.25 0"/>
<feBlend mode="normal" in2="shape" result="effect1_innerShadow_781_3126"/>
</filter>
<linearGradient id="paint0_linear_781_3126" x1="659.724" y1="88.5736" x2="303.156" y2="1499.61" gradientUnits="userSpaceOnUse">
<stop stop-color="#6552D0"/>
<stop offset="0.0526316" stop-color="#664FCD"/>
<stop offset="0.105263" stop-color="#674DCB"/>
<stop offset="0.157895" stop-color="#6D55CB"/>
<stop offset="0.210526" stop-color="#8569C0"/>
<stop offset="0.263158" stop-color="#9D82AD"/>
<stop offset="0.315789" stop-color="#B09C9A"/>
<stop offset="0.368421" stop-color="#BFB684"/>
<stop offset="0.421053" stop-color="#CACF6D"/>
<stop offset="0.473684" stop-color="#D0DD5C"/>
<stop offset="0.526316" stop-color="#D2E156"/>
<stop offset="0.578947" stop-color="#D4E550"/>
<stop offset="0.631579" stop-color="#D5E94A"/>
<stop offset="0.684211" stop-color="#D7ED43"/>
<stop offset="0.736842" stop-color="#D8EF42"/>
<stop offset="0.789474" stop-color="#D8EF47"/>
<stop offset="0.842105" stop-color="#D8EF4E"/>
<stop offset="0.894737" stop-color="#D9EF55"/>
<stop offset="0.947368" stop-color="#D9EE5B"/>
<stop offset="1" stop-color="#D9EE61"/>
</linearGradient>
</defs>
</svg>
